<svg xmlns="http://www.w3.org/2000/svg" version="1.1" viewBox="0 0 500 500">
<path fill="none" stroke-width="1.00" stroke="#000" vector-effect="non-scaling-stroke" d="
  M 0.00 0.00
  L 500.00 0.00
  L 500.00 500.00
  L 0.00 500.00
  L 0.00 0.00
  Z
  M 275.01 147.19
  C 250.18 148.78 231.49 147.96 209.54 147.26
  A 0.68 0.64 8.4 0 0 208.88 147.72
  Q 208.48 149.09 208.88 150.51
  A 0.73 0.66 -5.9 0 0 209.54 151.00
  C 217.78 151.19 228.28 151.17 228.52 161.51
  C 228.68 168.85 226.72 177.73 225.40 185.39
  Q 220.31 214.72 215.01 244.08
  A 0.79 0.78 -85.0 0 0 215.78 245.00
  L 237.22 244.99
  A 0.58 0.57 -84.5 0 0 237.78 244.52
  Q 244.43 206.61 251.45 168.79
  C 254.43 152.77 261.26 151.86 275.97 150.84
  A 0.78 0.73 6.0 0 0 276.64 150.33
  Q 277.18 148.59 275.90 147.46
  A 1.29 1.06 -22.3 0 0 275.01 147.19
  Z
  M 143.77 247.18
  Q 156.20 232.15 167.75 216.42
  A 1.12 0.93 -38.5 0 0 167.94 215.51
  Q 167.63 214.45 166.79 215.55
  Q 155.38 230.53 143.55 245.17
  C 130.91 260.83 115.02 273.29 102.42 289.22
  Q 102.21 289.49 102.16 289.80
  Q 102.07 290.41 102.15 290.46
  A 1.68 1.67 -51.9 0 0 104.07 290.22
  Q 117.37 278.06 128.55 265.22
  C 140.31 251.71 153.57 241.03 168.93 231.82
  C 175.76 227.74 185.59 223.70 193.66 225.08
  Q 196.19 225.51 196.44 228.06
  C 197.00 233.70 193.57 239.02 190.17 243.17
  C 178.26 257.75 158.25 272.10 138.75 272.29
  Q 136.63 272.31 134.40 271.22
  A 0.66 0.57 -71.3 0 1 134.11 270.51
  Q 134.48 269.00 133.17 268.43
  A 0.46 0.43 -70.6 0 0 132.56 268.75
  C 131.54 272.81 134.83 273.76 138.13 273.77
  C 159.18 273.80 180.17 258.32 192.46 242.48
  C 196.04 237.87 201.91 227.20 194.67 224.08
  C 189.78 221.96 179.56 224.89 174.80 227.05
  C 164.22 231.84 153.92 240.00 144.31 247.41
  C 144.27 247.44 143.95 247.51 143.89 247.51
  Q 143.52 247.49 143.77 247.18
  Z
  M 288.62 271.06
  C 289.20 270.35 290.70 268.40 289.18 268.42
  A 1.28 0.95 -64.4 0 0 288.36 268.85
  Q 283.30 274.57 275.49 272.86
  A 0.84 0.78 88.9 0 1 274.90 272.25
  C 273.59 266.83 267.93 269.68 264.46 271.50
  Q 260.57 273.53 249.75 275.50
  A 1.71 1.23 45.0 0 1 248.82 275.35
  L 244.22 273.13
  A 0.33 0.32 36.3 0 1 244.13 272.60
  Q 248.74 268.51 255.01 269.37
  Q 256.22 269.54 255.91 268.74
  A 1.25 0.94 5.3 0 0 255.22 268.11
  C 249.52 265.88 244.83 271.21 239.90 272.93
  Q 232.76 275.41 225.24 276.53
  Q 223.28 276.82 224.86 275.63
  Q 228.62 272.79 232.81 270.30
  C 235.24 268.86 233.07 268.21 231.62 268.65
  Q 228.80 269.50 227.55 267.22
  A 1.86 0.88 73.1 0 0 226.90 266.50
  Q 225.74 265.85 225.01 266.81
  A 1.07 0.71 60.8 0 0 224.94 267.70
  L 225.66 269.85
  A 0.55 0.53 -19.9 0 1 225.33 270.52
  Q 213.27 275.39 200.25 276.37
  Q 198.20 276.53 199.75 275.17
  Q 202.13 273.10 205.77 271.24
  Q 206.20 271.02 205.77 270.79
  C 203.74 269.74 202.27 268.18 200.05 267.96
  C 196.76 267.65 193.99 269.58 191.33 271.01
  C 185.85 273.95 178.32 275.15 172.21 276.20
  C 170.29 276.53 159.66 276.89 168.90 272.18
  A 1.29 1.16 37.0 0 1 169.81 272.10
  C 171.99 272.69 177.52 272.84 178.69 270.24
  Q 179.57 268.27 177.41 268.39
  C 173.17 268.63 168.37 269.86 165.23 272.73
  C 160.24 277.30 168.15 278.21 170.88 277.90
  Q 178.97 276.99 186.75 274.53
  Q 187.08 274.43 186.90 274.73
  C 183.20 280.95 194.32 276.47 196.28 275.56
  A 0.47 0.41 67.1 0 1 196.86 275.84
  L 197.31 277.04
  A 1.07 0.81 0.5 0 0 198.03 277.60
  C 205.71 279.32 221.11 274.71 228.60 270.34
  C 228.79 270.22 230.23 270.10 228.85 270.76
  Q 225.43 272.39 223.07 275.32
  C 217.98 281.64 239.84 274.55 241.54 273.90
  A 1.35 1.08 -38.2 0 1 242.49 273.91
  L 246.29 275.73
  Q 246.68 275.92 246.23 276.05
  L 241.21 277.58
  A 0.77 0.67 -10.1 0 0 240.66 278.26
  C 240.69 280.09 257.86 275.19 259.76 274.73
  Q 260.21 274.63 259.94 275.00
  Q 258.98 276.33 259.86 277.49
  A 1.07 0.90 -16.9 0 0 260.70 277.85
  Q 267.32 277.57 272.69 273.60
  A 0.81 0.80 -49.9 0 1 273.53 273.52
  Q 277.35 275.45 281.71 274.56
  Q 282.21 274.46 281.90 274.84
  L 280.28 276.84
  A 0.87 0.58 -45.1 0 0 280.11 277.71
  C 281.00 279.13 297.16 266.88 297.48 270.42
  A 1.17 0.88 -29.3 0 1 297.11 271.26
  C 295.73 272.57 288.79 279.09 295.83 277.82
  Q 304.71 276.22 313.35 273.49
  A 0.92 0.78 -5.1 0 0 313.97 272.86
  Q 314.24 271.48 312.50 272.00
  Q 302.05 275.14 295.04 276.49
  A 0.54 0.33 -16.9 0 1 294.54 276.36
  C 294.34 276.06 298.18 272.02 298.69 271.33
  A 1.61 1.34 -32.8 0 0 298.98 270.41
  C 298.79 266.15 291.40 270.09 288.77 271.24
  Q 288.32 271.44 288.62 271.06
  Z
  M 164.88 404.94
  A 0.74 0.72 50.4 0 0 165.55 405.01
  C 179.30 399.59 192.99 391.06 202.17 379.55
  C 213.21 365.72 219.06 346.35 222.44 329.68
  Q 226.01 312.06 230.66 284.54
  A 0.43 0.42 4.6 0 0 230.24 284.05
  L 208.83 284.02
  A 1.14 1.12 -85.5 0 0 207.72 284.98
  Q 203.05 313.63 197.33 342.06
  C 192.85 364.29 184.62 387.51 165.58 400.63
  C 163.76 401.89 162.20 403.14 164.88 404.94
  Z
  M 301.2933 331.8252
  A 12.84 12.84 0.0 0 0 288.7708 318.6753
  L 285.4118 318.5932
  A 12.84 12.84 0.0 0 0 272.2620 331.1157
  L 272.1867 334.1948
  A 12.84 12.84 0.0 0 0 284.7092 347.3447
  L 288.0682 347.4268
  A 12.84 12.84 0.0 0 0 301.2180 334.9043
  L 301.2933 331.8252
  Z"
/>
<path fill="" stroke-width="1.00" stroke="#000" vector-effect="non-scaling-stroke" d="
  M 209.54 147.26
  C 231.49 147.96 250.18 148.78 275.01 147.19
  A 1.29 1.06 -22.3 0 1 275.90 147.46
  Q 277.18 148.59 276.64 150.33
  A 0.78 0.73 6.0 0 1 275.97 150.84
  C 261.26 151.86 254.43 152.77 251.45 168.79
  Q 244.43 206.61 237.78 244.52
  A 0.58 0.57 -84.5 0 1 237.22 244.99
  L 215.78 245.00
  A 0.79 0.78 -85.0 0 1 215.01 244.08
  Q 220.31 214.72 225.40 185.39
  C 226.72 177.73 228.68 168.85 228.52 161.51
  C 228.28 151.17 217.78 151.19 209.54 151.00
  A 0.73 0.66 -5.9 0 1 208.88 150.51
  Q 208.48 149.09 208.88 147.72
  A 0.68 0.64 8.4 0 1 209.54 147.26
  Z"
/>
<path fill="" stroke-width="1.00" stroke="#000" vector-effect="non-scaling-stroke" d="
  M 164.88 404.94
  C 162.20 403.14 163.76 401.89 165.58 400.63
  C 184.62 387.51 192.85 364.29 197.33 342.06
  Q 203.05 313.63 207.72 284.98
  A 1.14 1.12 -85.5 0 1 208.83 284.02
  L 230.24 284.05
  A 0.43 0.42 4.6 0 1 230.66 284.54
  Q 226.01 312.06 222.44 329.68
  C 219.06 346.35 213.21 365.72 202.17 379.55
  C 192.99 391.06 179.30 399.59 165.55 405.01
  A 0.74 0.72 50.4 0 1 164.88 404.94
  Z"
/>
<rect fill="" stroke-width="1.00" stroke="#000" vector-effect="non-scaling-stroke" x="-14.52" y="-14.38" transform="translate(286.74,333.01) rotate(1.4)" width="29.04" height="28.76" rx="12.84"/>
</svg>